ffmpeg started on 2025-06-19 at 09:38:16
Report written to "D:\Convert\FFMetrics\reports\psnr_report-6.txt"
Log level: 32
Command line:
ffmpeg -hide_banner -nostdin -i "G:\\\xc0\xed\xe8\xec\xe5\\[\xd2\xee\xef-4]\\Fate\\\xc4\xee\xef\xee\xeb\xed\xe5\xed\xe8\xe5 - \xcf\xee\xf1\xeb\xe5\xe4\xed\xe8\xe9 \xe2\xfb\xe7\xee\xe2 \xed\xe0 \xe1\xe8\xf1\\Fate_Extra_Last_Encore_[03]_[AniLibria_TV]_[HDTV-Rip_720p]_HEVC.mkv" -i "G:\\\xc0\xed\xe8\xec\xe5\\[\xd2\xee\xef-4]\\Fate\\\xc4\xee\xef\xee\xeb\xed\xe5\xed\xe8\xe5 - \xcf\xee\xf1\xeb\xe5\xe4\xed\xe8\xe9 \xe2\xfb\xe7\xee\xe2 \xed\xe0 \xe1\xe8\xf1\\Fate_Extra_Last_Encore_[03]_[AniLibria_TV]_[HDTV-Rip_720p].mkv" -lavfi "[0:v]settb=AVTB,setpts=PTS-STARTPTS,format=pix_fmts=yuv420p10,fps=24000/1001,scale=1280:720:flags=bicubic[main];[1:v]settb=AVTB,setpts=PTS-STARTPTS,format=pix_fmts=yuv420p,fps=24000/1001,scale=1280:720:flags=bicubic[ref];[main][ref]psnr=eof_action=endall:stats_file='D\\:/Convert/FFMetrics/logs/psnr_logfile-6.txt'" -f null -
Input #0, matroska,webm, from 'G:\Аниме\[Топ-4]\Fate\Дополнение - Последний вызов на бис\Fate_Extra_Last_Encore_[03]_[AniLibria_TV]_[HDTV-Rip_720p]_HEVC.mkv':
  Metadata:
    ENCODER         : Lavf61.7.100
  Duration: 00:25:30.13, start: -0.021000, bitrate: 1244 kb/s
  Stream #0:0(jpn): Video: hevc (Main 10), yuv420p10le(tv, bt709, progressive), 1280x720 [SAR 1:1 DAR 16:9], 23.81 fps, 23.81 tbr, 1k tbn (default)
      Metadata:
        ENCODER         : Lavc61.19.100 libx265
        BPS             : 1047089
        DURATION        : 00:25:30.018000000
        NUMBER_OF_FRAMES: 36682
        NUMBER_OF_BYTES : 200258144
        _STATISTICS_WRITING_APP: mkvpropedit v66.0.0 ('Josie') 64-bit
        _STATISTICS_WRITING_DATE_UTC: 2025-06-17 11:58:09
        _STATISTICS_TAGS: BPS DURATION NUMBER_OF_FRAMES NUMBER_OF_BYTES
  Stream #0:1(rus): Audio: aac (LC), 48000 Hz, stereo, fltp (default)
      Metadata:
        title           : Ados Amikiri Anzen Hekomi Silv
        ENCODER         : Lavc61.19.100 aac
        BPS             : 193167
        DURATION        : 00:25:30.112000000
        NUMBER_OF_FRAMES: 71725
        NUMBER_OF_BYTES : 36946041
        _STATISTICS_WRITING_APP: mkvpropedit v66.0.0 ('Josie') 64-bit
        _STATISTICS_WRITING_DATE_UTC: 2025-06-17 11:58:09
        _STATISTICS_TAGS: BPS DURATION NUMBER_OF_FRAMES NUMBER_OF_BYTES
  Stream #0:2(rus): Subtitle: ass (ssa) (default) (forced)
      Metadata:
        title           : Надписи
        BPS             : 15
        DURATION        : 00:22:21.990000000
        NUMBER_OF_FRAMES: 13
        NUMBER_OF_BYTES : 2572
        _STATISTICS_WRITING_APP: mkvpropedit v66.0.0 ('Josie') 64-bit
        _STATISTICS_WRITING_DATE_UTC: 2025-06-17 11:58:09
        _STATISTICS_TAGS: BPS DURATION NUMBER_OF_FRAMES NUMBER_OF_BYTES
  Stream #0:3(rus): Subtitle: ass (ssa)
      Metadata:
        title           : Полные
        BPS             : 128
        DURATION        : 00:24:32.080000000
        NUMBER_OF_FRAMES: 320
        NUMBER_OF_BYTES : 23623
        _STATISTICS_WRITING_APP: mkvpropedit v66.0.0 ('Josie') 64-bit
        _STATISTICS_WRITING_DATE_UTC: 2025-06-17 11:58:09
        _STATISTICS_TAGS: BPS DURATION NUMBER_OF_FRAMES NUMBER_OF_BYTES
Input #1, matroska,webm, from 'G:\Аниме\[Топ-4]\Fate\Дополнение - Последний вызов на бис\Fate_Extra_Last_Encore_[03]_[AniLibria_TV]_[HDTV-Rip_720p].mkv':
  Metadata:
    encoder         : libebml v1.4.2 + libmatroska v1.6.4
    creation_time   : 2024-12-27T09:56:35.000000Z
  Duration: 00:25:30.11, start: 0.000000, bitrate: 2652 kb/s
  Stream #1:0(jpn): Video: h264 (Main), yuv420p(tv, bt709, progressive), 1280x720, SAR 1:1 DAR 16:9, 23.81 fps, 23.81 tbr, 1k tbn (default)
      Metadata:
        BPS             : 2448061
        DURATION        : 00:25:30.003000000
        NUMBER_OF_FRAMES: 36682
        NUMBER_OF_BYTES : 468192756
        _STATISTICS_WRITING_APP: mkvmerge v66.0.0 ('Josie') 64-bit
        _STATISTICS_WRITING_DATE_UTC: 2024-12-27 09:56:35
        _STATISTICS_TAGS: BPS DURATION NUMBER_OF_FRAMES NUMBER_OF_BYTES
  Stream #1:1(rus): Audio: aac (LC), 48000 Hz, stereo, fltp (default)
      Metadata:
        title           : Ados Amikiri Anzen Hekomi Silv
        BPS             : 192091
        DURATION        : 00:25:30.112000000
        NUMBER_OF_FRAMES: 71724
        NUMBER_OF_BYTES : 36740112
        _STATISTICS_WRITING_APP: mkvmerge v66.0.0 ('Josie') 64-bit
        _STATISTICS_WRITING_DATE_UTC: 2024-12-27 09:56:35
        _STATISTICS_TAGS: BPS DURATION NUMBER_OF_FRAMES NUMBER_OF_BYTES
  Stream #1:2(rus): Subtitle: ass (ssa) (default) (forced)
      Metadata:
        title           : Надписи
        BPS             : 15
        DURATION        : 00:22:21.990000000
        NUMBER_OF_FRAMES: 13
        NUMBER_OF_BYTES : 2572
        _STATISTICS_WRITING_APP: mkvmerge v66.0.0 ('Josie') 64-bit
        _STATISTICS_WRITING_DATE_UTC: 2024-12-27 09:56:35
        _STATISTICS_TAGS: BPS DURATION NUMBER_OF_FRAMES NUMBER_OF_BYTES
  Stream #1:3(rus): Subtitle: ass (ssa)
      Metadata:
        title           : Полные
        BPS             : 128
        DURATION        : 00:24:32.080000000
        NUMBER_OF_FRAMES: 320
        NUMBER_OF_BYTES : 23623
        _STATISTICS_WRITING_APP: mkvmerge v66.0.0 ('Josie') 64-bit
        _STATISTICS_WRITING_DATE_UTC: 2024-12-27 09:56:35
        _STATISTICS_TAGS: BPS DURATION NUMBER_OF_FRAMES NUMBER_OF_BYTES
  Stream #1:4: Attachment: ttf
      Metadata:
        filename        : BwSurcoDEMO-Medium.otf
        mimetype        : application/x-truetype-font
  Stream #1:5: Attachment: ttf
      Metadata:
        filename        : BwSurcoDEMO-MediumItalic.otf
        mimetype        : application/x-truetype-font
  Stream #1:6: Attachment: ttf
      Metadata:
        filename        : BwSurcoDEMO-Regular.otf
        mimetype        : application/x-truetype-font
  Stream #1:7: Attachment: ttf
      Metadata:
        filename        : BwSurcoDEMO-RegularItalic.otf
        mimetype        : application/x-truetype-font
  Stream #1:8: Attachment: ttf
      Metadata:
        filename        : KozGoPr6N-Medium_0.otf
        mimetype        : application/x-truetype-font
  Stream #1:9: Attachment: ttf
      Metadata:
        filename        : 9511(1).ttf
        mimetype        : application/x-truetype-font
  Stream #1:10: Attachment: ttf
      Metadata:
        filename        : arx.ttf
        mimetype        : application/x-truetype-font
  Stream #1:11: Attachment: ttf
      Metadata:
        filename        : BwSurcoDEMO-Black.otf
        mimetype        : application/x-truetype-font
  Stream #1:12: Attachment: ttf
      Metadata:
        filename        : BwSurcoDEMO-BlackItalic.otf
        mimetype        : application/x-truetype-font
  Stream #1:13: Attachment: ttf
      Metadata:
        filename        : BwSurcoDEMO-Bold.otf
        mimetype        : application/x-truetype-font
  Stream #1:14: Attachment: ttf
      Metadata:
        filename        : BwSurcoDEMO-BoldItalic.otf
        mimetype        : application/x-truetype-font
  Stream #1:15: Attachment: ttf
      Metadata:
        filename        : BwSurcoDEMO-Book.otf
        mimetype        : application/x-truetype-font
  Stream #1:16: Attachment: ttf
      Metadata:
        filename        : BwSurcoDEMO-BookItalic.otf
        mimetype        : application/x-truetype-font
  Stream #1:17: Attachment: ttf
      Metadata:
        filename        : BwSurcoDEMO-Light.otf
        mimetype        : application/x-truetype-font
  Stream #1:18: Attachment: ttf
      Metadata:
        filename        : BwSurcoDEMO-LightItalic.otf
        mimetype        : application/x-truetype-font
Stream mapping:
  Stream #0:0 (hevc) -> settb:default
  Stream #1:0 (h264) -> settb:default
  psnr:default -> Stream #0:0 (wrapped_avframe)
  Stream #0:1 -> #0:1 (aac (native) -> pcm_s16le (native))
Output #0, null, to 'pipe:':
  Metadata:
    encoder         : Lavf61.7.100
  Stream #0:0: Video: wrapped_avframe, yuv420p10le(tv, bt709, progressive), 1280x720 [SAR 1:1 DAR 16:9], q=2-31, 200 kb/s, 23.98 fps, 23.98 tbn
      Metadata:
        encoder         : Lavc61.19.100 wrapped_avframe
  Stream #0:1(rus): Audio: pcm_s16le, 48000 Hz, stereo, s16, 1536 kb/s (default)
      Metadata:
        title           : Ados Amikiri Anzen Hekomi Silv
        _STATISTICS_TAGS: BPS DURATION NUMBER_OF_FRAMES NUMBER_OF_BYTES
        BPS             : 193167
        DURATION        : 00:25:30.112000000
        NUMBER_OF_FRAMES: 71725
        NUMBER_OF_BYTES : 36946041
        _STATISTICS_WRITING_APP: mkvpropedit v66.0.0 ('Josie') 64-bit
        _STATISTICS_WRITING_DATE_UTC: 2025-06-17 11:58:09
        encoder         : Lavc61.19.100 pcm_s16le
frame=  333 fps=0.0 q=-0.0 size=N/A time=00:00:13.88 bitrate=N/A speed=26.7x    frame=  734 fps=714 q=-0.0 size=N/A time=00:00:30.61 bitrate=N/A speed=29.8x    frame= 1243 fps=801 q=-0.0 size=N/A time=00:00:51.84 bitrate=N/A speed=33.4x    frame= 1442 fps=696 q=-0.0 size=N/A time=00:01:00.14 bitrate=N/A speed=  29x    frame= 1671 fps=648 q=-0.0 size=N/A time=00:01:09.69 bitrate=N/A speed=  27x    frame= 1732 fps=558 q=-0.0 size=N/A time=00:01:12.23 bitrate=N/A speed=23.3x    frame= 1935 fps=536 q=-0.0 size=N/A time=00:01:20.70 bitrate=N/A speed=22.4x    frame= 2133 fps=516 q=-0.0 size=N/A time=00:01:28.96 bitrate=N/A speed=21.5x    frame= 2134 fps=460 q=-0.0 size=N/A time=00:01:29.00 bitrate=N/A speed=19.2x    frame= 2366 fps=458 q=-0.0 size=N/A time=00:01:38.68 bitrate=N/A speed=19.1x    frame= 2500 fps=441 q=-0.0 size=N/A time=00:01:44.27 bitrate=N/A speed=18.4x    frame= 2658 fps=429 q=-0.0 size=N/A time=00:01:50.86 bitrate=N/A speed=17.9x    frame= 2834 fps=423 q=-0.0 size=N/A time=00:01:58.20 bitrate=N/A speed=17.6x    frame= 2893 fps=401 q=-0.0 size=N/A time=00:02:00.66 bitrate=N/A speed=16.7x    frame= 2989 fps=386 q=-0.0 size=N/A time=00:02:04.66 bitrate=N/A speed=16.1x    frame= 3319 fps=402 q=-0.0 size=N/A time=00:02:18.42 bitrate=N/A speed=16.8x    frame= 3768 fps=430 q=-0.0 size=N/A time=00:02:37.15 bitrate=N/A speed=17.9x    frame= 4033 fps=435 q=-0.0 size=N/A time=00:02:48.20 bitrate=N/A speed=18.1x    frame= 4246 fps=433 q=-0.0 size=N/A time=00:02:57.09 bitrate=N/A speed=18.1x    frame= 4411 fps=428 q=-0.0 size=N/A time=00:03:03.97 bitrate=N/A speed=17.8x    frame= 5029 fps=464 q=-0.0 size=N/A time=00:03:29.75 bitrate=N/A speed=19.4x    frame= 5573 fps=491 q=-0.0 size=N/A time=00:03:52.44 bitrate=N/A speed=20.5x    frame= 6176 fps=521 q=-0.0 size=N/A time=00:04:17.59 bitrate=N/A speed=21.7x    frame= 6661 fps=538 q=-0.0 size=N/A time=00:04:37.81 bitrate=N/A speed=22.4x    frame= 6816 fps=529 q=-0.0 size=N/A time=00:04:44.28 bitrate=N/A speed=  22x    frame= 7418 fps=553 q=-0.0 size=N/A time=00:05:09.39 bitrate=N/A speed=23.1x    frame= 7635 fps=548 q=-0.0 size=N/A time=00:05:18.44 bitrate=N/A speed=22.9x    frame= 7904 fps=547 q=-0.0 size=N/A time=00:05:29.66 bitrate=N/A speed=22.8x    frame= 8230 fps=550 q=-0.0 size=N/A time=00:05:43.25 bitrate=N/A speed=  23x    frame= 8813 fps=570 q=-0.0 size=N/A time=00:06:07.57 bitrate=N/A speed=23.8x    frame= 9386 fps=587 q=-0.0 size=N/A time=00:06:31.47 bitrate=N/A speed=24.5x    frame= 9835 fps=596 q=-0.0 size=N/A time=00:06:50.20 bitrate=N/A speed=24.9x    frame= 9998 fps=587 q=-0.0 size=N/A time=00:06:56.99 bitrate=N/A speed=24.5x    frame=10551 fps=602 q=-0.0 size=N/A time=00:07:20.06 bitrate=N/A speed=25.1x    frame=10822 fps=599 q=-0.0 size=N/A time=00:07:31.36 bitrate=N/A speed=  25x    frame=11254 fps=606 q=-0.0 size=N/A time=00:07:49.38 bitrate=N/A speed=25.3x    frame=11768 fps=617 q=-0.0 size=N/A time=00:08:10.82 bitrate=N/A speed=25.7x    frame=11888 fps=607 q=-0.0 size=N/A time=00:08:15.82 bitrate=N/A speed=25.3x    frame=12488 fps=621 q=-0.0 size=N/A time=00:08:40.85 bitrate=N/A speed=25.9x    frame=12996 fps=630 q=-0.0 size=N/A time=00:09:02.04 bitrate=N/A speed=26.3x    frame=13270 fps=627 q=-0.0 size=N/A time=00:09:13.46 bitrate=N/A speed=26.2x    frame=13701 fps=633 q=-0.0 size=N/A time=00:09:31.44 bitrate=N/A speed=26.4x    frame=14134 fps=637 q=-0.0 size=N/A time=00:09:49.50 bitrate=N/A speed=26.6x    frame=14454 fps=637 q=-0.0 size=N/A time=00:10:02.85 bitrate=N/A speed=26.6x    frame=15082 fps=650 q=-0.0 size=N/A time=00:10:29.04 bitrate=N/A speed=27.1x    frame=15449 fps=651 q=-0.0 size=N/A time=00:10:44.35 bitrate=N/A speed=27.2x    frame=15859 fps=654 q=-0.0 size=N/A time=00:11:01.45 bitrate=N/A speed=27.3x    frame=16056 fps=648 q=-0.0 size=N/A time=00:11:09.66 bitrate=N/A speed=  27x    frame=16239 fps=643 q=-0.0 size=N/A time=00:11:17.30 bitrate=N/A speed=26.8x    frame=16681 fps=647 q=-0.0 size=N/A time=00:11:35.73 bitrate=N/A speed=  27x    frame=16762 fps=637 q=-0.0 size=N/A time=00:11:39.11 bitrate=N/A speed=26.6x    frame=17083 fps=637 q=-0.0 size=N/A time=00:11:52.50 bitrate=N/A speed=26.6x    frame=17393 fps=636 q=-0.0 size=N/A time=00:12:05.43 bitrate=N/A speed=26.5x    frame=17438 fps=626 q=-0.0 size=N/A time=00:12:07.30 bitrate=N/A speed=26.1x    frame=17812 fps=628 q=-0.0 size=N/A time=00:12:22.90 bitrate=N/A speed=26.2x    frame=18187 fps=630 q=-0.0 size=N/A time=00:12:38.54 bitrate=N/A speed=26.3x    frame=18443 fps=627 q=-0.0 size=N/A time=00:12:49.22 bitrate=N/A speed=26.2x    frame=18894 fps=632 q=-0.0 size=N/A time=00:13:08.03 bitrate=N/A speed=26.3x    frame=19010 fps=625 q=-0.0 size=N/A time=00:13:12.87 bitrate=N/A speed=26.1x    frame=19332 fps=625 q=-0.0 size=N/A time=00:13:26.30 bitrate=N/A speed=26.1x    frame=19740 fps=628 q=-0.0 size=N/A time=00:13:43.32 bitrate=N/A speed=26.2x    frame=20157 fps=630 q=-0.0 size=N/A time=00:14:00.71 bitrate=N/A speed=26.3x    frame=20618 fps=635 q=-0.0 size=N/A time=00:14:19.94 bitrate=N/A speed=26.5x    frame=21151 fps=641 q=-0.0 size=N/A time=00:14:42.17 bitrate=N/A speed=26.7x    frame=21573 fps=644 q=-0.0 size=N/A time=00:14:59.77 bitrate=N/A speed=26.8x    frame=22142 fps=650 q=-0.0 size=N/A time=00:15:23.50 bitrate=N/A speed=27.1x    frame=22186 fps=642 q=-0.0 size=N/A time=00:15:25.34 bitrate=N/A speed=26.8x    frame=22468 fps=641 q=-0.0 size=N/A time=00:15:37.10 bitrate=N/A speed=26.7x    frame=22811 fps=641 q=-0.0 size=N/A time=00:15:51.40 bitrate=N/A speed=26.7x    frame=22994 fps=637 q=-0.0 size=N/A time=00:15:59.04 bitrate=N/A speed=26.6x    frame=23469 fps=641 q=-0.0 size=N/A time=00:16:18.85 bitrate=N/A speed=26.7x    frame=23734 fps=639 q=-0.0 size=N/A time=00:16:29.90 bitrate=N/A speed=26.7x    frame=24085 fps=640 q=-0.0 size=N/A time=00:16:44.54 bitrate=N/A speed=26.7x    frame=24570 fps=644 q=-0.0 size=N/A time=00:17:04.77 bitrate=N/A speed=26.9x    frame=24675 fps=638 q=-0.0 size=N/A time=00:17:09.15 bitrate=N/A speed=26.6x    frame=25042 fps=639 q=-0.0 size=N/A time=00:17:24.46 bitrate=N/A speed=26.7x    frame=25402 fps=640 q=-0.0 size=N/A time=00:17:39.47 bitrate=N/A speed=26.7x    frame=25620 fps=637 q=-0.0 size=N/A time=00:17:48.56 bitrate=N/A speed=26.6x    frame=26006 fps=638 q=-0.0 size=N/A time=00:18:04.66 bitrate=N/A speed=26.6x    frame=26180 fps=635 q=-0.0 size=N/A time=00:18:11.92 bitrate=N/A speed=26.5x    frame=26391 fps=632 q=-0.0 size=N/A time=00:18:20.72 bitrate=N/A speed=26.4x    frame=26762 fps=633 q=-0.0 size=N/A time=00:18:36.19 bitrate=N/A speed=26.4x    frame=26782 fps=626 q=-0.0 size=N/A time=00:18:37.03 bitrate=N/A speed=26.1x    frame=27194 fps=628 q=-0.0 size=N/A time=00:18:54.21 bitrate=N/A speed=26.2x    frame=27420 fps=626 q=-0.0 size=N/A time=00:19:03.64 bitrate=N/A speed=26.1x    frame=27574 fps=622 q=-0.0 size=N/A time=00:19:10.06 bitrate=N/A speed=25.9x    frame=28036 fps=625 q=-0.0 size=N/A time=00:19:29.33 bitrate=N/A speed=26.1x    frame=28463 fps=627 q=-0.0 size=N/A time=00:19:47.14 bitrate=N/A speed=26.2x    frame=28940 fps=631 q=-0.0 size=N/A time=00:20:07.03 bitrate=N/A speed=26.3x    frame=29338 fps=632 q=-0.0 size=N/A time=00:20:23.63 bitrate=N/A speed=26.4x    frame=29365 fps=626 q=-0.0 size=N/A time=00:20:24.76 bitrate=N/A speed=26.1x    frame=29751 fps=627 q=-0.0 size=N/A time=00:20:40.86 bitrate=N/A speed=26.2x    frame=30009 fps=626 q=-0.0 size=N/A time=00:20:51.62 bitrate=N/A speed=26.1x    frame=30376 fps=627 q=-0.0 size=N/A time=00:21:06.93 bitrate=N/A speed=26.1x    frame=30984 fps=632 q=-0.0 size=N/A time=00:21:32.29 bitrate=N/A speed=26.4x    frame=31532 fps=637 q=-0.0 size=N/A time=00:21:55.14 bitrate=N/A speed=26.6x    frame=32070 fps=641 q=-0.0 size=N/A time=00:22:17.58 bitrate=N/A speed=26.7x    frame=32393 fps=641 q=-0.0 size=N/A time=00:22:31.05 bitrate=N/A speed=26.7x    frame=32468 fps=636 q=-0.0 size=N/A time=00:22:34.18 bitrate=N/A speed=26.5x    frame=32933 fps=638 q=-0.0 size=N/A time=00:22:53.58 bitrate=N/A speed=26.6x    frame=33053 fps=634 q=-0.0 size=N/A time=00:22:58.58 bitrate=N/A speed=26.5x    frame=33320 fps=633 q=-0.0 size=N/A time=00:23:09.72 bitrate=N/A speed=26.4x    frame=33665 fps=634 q=-0.0 size=N/A time=00:23:24.11 bitrate=N/A speed=26.4x    frame=33703 fps=628 q=-0.0 size=N/A time=00:23:25.69 bitrate=N/A speed=26.2x    frame=33901 fps=626 q=-0.0 size=N/A time=00:23:33.95 bitrate=N/A speed=26.1x    frame=34100 fps=623 q=-0.0 size=N/A time=00:23:42.25 bitrate=N/A speed=  26x    frame=34111 fps=618 q=-0.0 size=N/A time=00:23:42.71 bitrate=N/A speed=25.8x    frame=34135 fps=613 q=-0.0 size=N/A time=00:23:43.71 bitrate=N/A speed=25.5x    frame=34148 fps=607 q=-0.0 size=N/A time=00:23:44.25 bitrate=N/A speed=25.3x    frame=34481 fps=608 q=-0.0 size=N/A time=00:23:58.14 bitrate=N/A speed=25.3x    frame=34746 fps=607 q=-0.0 size=N/A time=00:24:09.19 bitrate=N/A speed=25.3x    frame=35025 fps=606 q=-0.0 size=N/A time=00:24:20.83 bitrate=N/A speed=25.3x    frame=35422 fps=608 q=-0.0 size=N/A time=00:24:37.39 bitrate=N/A speed=25.3x    frame=35887 fps=610 q=-0.0 size=N/A time=00:24:56.78 bitrate=N/A speed=25.4x    frame=36378 fps=613 q=-0.0 size=N/A time=00:25:17.26 bitrate=N/A speed=25.6x    [Parsed_psnr_10 @ 0000029efae947c0] PSNR y:30.564316 u:40.117828 v:40.423355 average:32.098753 min:7.013031 max:61.983464
[out#0/null @ 0000029efab8d280] video:15762KiB audio:286900KiB subtitle:0KiB other streams:0KiB global headers:0KiB muxing overhead: unknown
frame=36683 fps=616 q=-0.0 Lsize=N/A time=00:25:29.98 bitrate=N/A speed=25.7x    
